<?xml version="1.0" standalone="no"?>
<!DOCTYPE svg PUBLIC "-//W3C//DTD SVG 20010904//EN"
 "http://www.w3.org/TR/2001/REC-SVG-20010904/DTD/svg10.dtd">
<svg version="1.0" xmlns="http://www.w3.org/2000/svg"
 width="400.000000pt" height="400.000000pt" viewBox="0 0 400.000000 400.000000"
 preserveAspectRatio="xMidYMid meet">

<g transform="translate(0.000000,400.000000) scale(0.100000,-0.100000)"
fill="#ffffff" stroke="none">
<path d="M1740 3385 c-279 -33 -470 -99 -571 -196 -84 -81 -84 -158 -1 -239
26 -25 72 -58 103 -74 l56 -30 -67 -67 c-149 -151 -269 -363 -359 -634 -49
-150 -95 -348 -107 -464 l-7 -61 -33 0 c-19 0 -34 5 -34 10 0 6 -11 10 -25 10
-13 0 -28 7 -33 16 -8 14 -10 12 -16 -10 l-6 -26 -208 -2 c-114 -1 -219 -2
-234 -2 -16 -1 -28 -3 -28 -6 0 -3 27 -36 61 -74 68 -77 69 -64 -21 -155 l-55
-56 185 -6 c102 -4 202 -7 223 -8 l37 -1 0 -153 0 -154 473 -6 c259 -4 883 -7
1385 -7 l912 0 0 174 0 173 46 7 c26 3 124 6 218 6 l170 0 -72 73 -72 72 62
63 63 62 -208 0 -207 0 0 34 c0 18 -7 39 -15 46 -8 7 -15 18 -15 25 0 7 -11
12 -25 11 -24 -1 -25 -4 -25 -58 0 -58 0 -58 -30 -58 -23 0 -31 5 -34 23 -97
479 -279 866 -528 1119 l-86 88 34 15 c56 23 123 74 155 117 53 74 35 160 -49
226 -97 77 -301 147 -502 172 -142 18 -384 20 -510 5z m57 -21 c2 -6 -9 -16
-24 -23 -98 -45 -294 -204 -305 -249 -15 -58 116 -190 275 -277 106 -58 95
-64 -73 -40 -327 47 -550 166 -550 295 0 137 249 258 625 303 38 5 48 3 52 -9z
m43 12 c0 -2 -7 -6 -15 -10 -8 -3 -15 -1 -15 4 0 6 7 10 15 10 8 0 15 -2 15
-4z m81 -13 c-6 -10 -19 -29 -30 -43 l-20 -25 -26 25 -27 25 39 17 c52 24 77
24 64 1z m79 -29 c33 -44 33 -47 15 -60 -10 -8 -29 -14 -40 -14 -28 0 -85 20
-85 29 0 11 61 91 68 91 4 0 23 -21 42 -46z m47 30 c24 -9 43 -19 43 -23 -1
-10 -38 -56 -42 -51 -76 102 -76 102 -1 74z m53 6 c0 -13 -11 -13 -30 0 -12 8
-11 10 8 10 12 0 22 -4 22 -10z m175 -9 c304 -46 519 -151 541 -265 9 -52 -1
-82 -46 -130 -39 -42 -159 -112 -208 -121 -13 -2 -33 -7 -44 -11 -15 -4 -18
-3 -13 6 5 9 4 11 -4 6 -6 -4 -9 -11 -7 -15 12 -18 -337 -82 -355 -64 -5 5 25
31 69 60 42 28 96 69 119 91 23 22 45 37 49 33 4 -3 4 -1 1 6 -4 6 5 21 19 32
15 12 23 21 18 21 -5 0 -2 6 8 13 12 9 16 26 14 62 -1 31 5 62 16 82 9 18 13
35 9 38 -5 2 -12 -5 -15 -18 -14 -51 -22 -52 -64 -9 -43 43 -144 113 -222 152
-55 27 -54 26 -45 39 8 14 8 14 160 -8z m-441 -50 l27 -28 -23 -69 c-32 -95
-31 -233 1 -317 l23 -59 -22 -23 -23 -24 -41 21 c-127 65 -296 213 -296 260 0
30 33 71 104 127 59 47 203 141 216 141 4 0 19 -13 34 -29z m324 4 c49 -26 98
-57 176 -115 34 -25 46 -40 42 -53 -4 -15 -2 -16 10 -6 11 9 17 5 28 -21 15
-36 12 -55 -9 -84 -13 -16 -17 -17 -32 -5 -17 13 -17 13 -1 -6 15 -19 15 -22
-8 -48 -13 -15 -24 -26 -24 -23 0 4 -16 -11 -35 -33 -35 -38 -152 -121 -172
-121 -5 0 -16 12 -23 26 -8 14 -22 30 -31 35 -16 8 -16 12 -2 56 21 67 21 223
0 295 -17 56 -17 57 5 92 13 19 24 35 26 36 1 0 24 -11 50 -25z m-184 -60 l70
-1 14 -34 c20 -49 26 -212 10 -280 l-14 -55 -50 3 c-31 2 -66 -3 -89 -12 -20
-9 -39 -16 -41 -16 -2 0 -11 17 -21 38 -25 56 -25 249 2 320 15 41 23 51 35
45 8 -4 46 -7 84 -8z m65 -391 c3 -3 -6 -27 -20 -52 -25 -44 -29 -47 -70 -49
-43 -2 -109 13 -109 24 0 4 7 14 16 24 15 17 17 16 41 -12 14 -16 29 -29 35
-29 5 0 -2 14 -16 31 -29 34 -32 44 -14 55 33 21 120 26 137 8z m56 -45 c9
-17 15 -32 13 -33 -33 -21 -104 -35 -96 -18 44 92 58 100 83 51z m-659 -9 c16
-5 48 -14 72 -20 l43 -11 -93 -98 c-114 -118 -169 -189 -235 -301 -108 -184
-177 -400 -202 -632 -6 -54 -11 -104 -11 -113 0 -12 -13 -15 -65 -15 l-65 0 0
75 c0 87 49 348 84 451 65 191 160 369 264 494 54 66 164 180 173 180 3 0 19
-4 35 -10z m1156 -56 c274 -225 457 -550 542 -966 9 -42 16 -102 16 -131 l0
-55 -55 -7 c-30 -3 -59 -4 -64 -1 -5 3 -12 32 -16 63 -19 161 -81 373 -148
510 -108 220 -224 364 -435 538 -40 32 -72 61 -72 65 0 5 113 36 144 38 10 1
50 -23 88 -54z m-582 -324 l0 -250 400 0 c260 0 400 -3 400 -10 0 -6 -140 -10
-400 -10 l-400 0 0 -225 c0 -193 -2 -225 -15 -225 -13 0 -15 32 -15 225 l0
225 -404 0 c-259 0 -407 4 -411 10 -4 7 133 10 404 10 l411 0 0 250 c0 216 2
250 15 250 13 0 15 -34 15 -250z m207 66 l26 -55 59 30 58 29 0 -26 c0 -29 13
-28 83 7 l37 19 0 -25 c0 -31 -1 -31 60 0 27 14 52 25 55 25 3 0 5 -36 5 -80
0 -79 0 -80 25 -80 24 0 25 -2 25 -65 l0 -65 -310 0 -310 0 0 65 0 65 30 0 30
0 0 105 0 105 50 0 50 0 27 -54z m-807 -16 c0 -5 -11 -10 -24 -10 -14 0 -28 5
-31 10 -4 6 7 10 24 10 17 0 31 -4 31 -10z m98 3 c-10 -2 -26 -2 -35 0 -10 3
-2 5 17 5 19 0 27 -2 18 -5z m100 0 c-10 -2 -26 -2 -35 0 -10 3 -2 5 17 5 19
0 27 -2 18 -5z m110 0 c-10 -2 -28 -2 -40 0 -13 2 -5 4 17 4 22 1 32 -1 23 -4z
m108 -2 c-5 -8 -56 -3 -56 5 0 2 14 4 31 4 16 0 28 -4 25 -9z m92 2 c-10 -2
-26 -2 -35 0 -10 3 -2 5 17 5 19 0 27 -2 18 -5z m-433 -43 c4 -6 -8 -10 -29
-10 -20 0 -36 5 -36 10 0 6 13 10 29 10 17 0 33 -4 36 -10z m100 0 c4 -6 -7
-10 -24 -10 -17 0 -31 5 -31 10 0 6 11 10 24 10 14 0 28 -4 31 -10z m105 0 c0
-5 -13 -10 -30 -10 -16 0 -30 5 -30 10 0 6 14 10 30 10 17 0 30 -4 30 -10z
m105 0 c4 -6 -7 -10 -24 -10 -17 0 -31 5 -31 10 0 6 11 10 24 10 14 0 28 -4
31 -10z m105 0 c0 -5 -16 -10 -35 -10 -19 0 -35 5 -35 10 0 6 16 10 35 10 19
0 35 -4 35 -10z m-532 -7 c-10 -2 -26 -2 -35 0 -10 3 -2 5 17 5 19 0 27 -2 18
-5z m257 -73 c29 -17 42 -30 32 -30 -10 0 -16 -4 -13 -9 3 -4 17 -6 31 -3 17
3 25 0 25 -10 0 -10 10 -13 35 -10 24 3 35 0 35 -9 0 -7 2 -10 4 -8 2 2 1 23
-4 47 -6 37 -5 44 12 53 15 8 30 4 71 -20 29 -17 44 -31 34 -31 -10 0 -16 -4
-13 -9 3 -4 17 -6 31 -3 18 3 25 0 25 -12 0 -10 6 -13 15 -10 12 5 15 -2 15
-28 0 -43 -3 -46 -40 -40 -19 3 -30 10 -31 21 -1 14 -2 13 -6 -1 -4 -18 -13
-20 -73 -20 -151 0 -150 0 -151 30 l-2 27 -4 -27 c-3 -20 -10 -28 -26 -29 -12
-1 -34 -3 -49 -5 -21 -2 -28 2 -29 14 -1 15 -2 15 -6 0 -4 -15 -16 -18 -64
-18 l-59 0 -1 33 -1 32 -7 -30 c-6 -28 -9 -30 -59 -33 l-52 -3 0 38 c0 21 -3
55 -6 75 -6 34 -4 38 19 43 18 5 39 -1 71 -20 25 -15 46 -31 46 -36 0 -5 7 -9
15 -9 8 0 15 -3 15 -7 0 -5 18 -8 41 -8 l41 0 -5 42 c-4 41 -2 45 33 52 3 0
28 -13 55 -29z m-335 -95 c0 -35 0 -35 -45 -35 -25 0 -48 -1 -52 -2 -5 -2 -9
14 -11 35 l-3 37 55 0 56 0 0 -35z m1380 -160 c17 -9 30 -18 30 -21 0 -4 -59
23 -69 32 -10 9 13 3 39 -11z m-141 1 c-2 -2 -15 -9 -29 -15 -24 -11 -24 -11
-6 3 16 13 49 24 35 12z m-1209 -41 c-7 -8 -18 -15 -24 -15 -6 0 -2 7 8 15 25
19 32 19 16 0z m196 -17 c33 -35 94 -147 94 -172 0 -7 -7 -16 -15 -20 -9 -3
-15 -18 -15 -40 0 -30 -5 -38 -32 -52 -18 -9 -36 -22 -40 -28 -13 -19 -9 -65
8 -98 20 -39 13 -65 -30 -107 l-34 -33 -169 -5 c-92 -2 -188 -1 -213 4 -43 8
-45 10 -45 43 0 31 4 36 30 41 17 4 70 7 118 8 83 1 90 3 117 30 50 49 51 97
6 164 -21 30 -22 37 -10 37 9 0 30 15 48 33 17 18 48 45 69 60 20 16 37 33 37
39 0 7 12 29 26 50 26 37 26 39 9 58 -14 16 -15 20 -4 20 9 0 29 -15 45 -32z
m993 -34 c24 -10 40 -24 48 -44 7 -19 24 -34 47 -44 20 -8 44 -29 54 -46 15
-27 30 -35 56 -31 5 1 -1 -13 -13 -31 -12 -18 -27 -43 -33 -55 -15 -30 -1 -91
27 -119 22 -22 33 -24 117 -25 51 -1 107 -4 123 -8 26 -5 30 -10 30 -41 0 -32
-3 -35 -40 -43 -22 -5 -118 -7 -213 -4 l-173 4 -34 33 c-46 45 -49 58 -25 113
26 58 19 92 -24 114 -38 19 -46 30 -46 66 0 15 -7 30 -15 33 -23 9 -19 26 28
111 33 61 43 73 45 55 2 -16 15 -27 41 -38z m249 -64 l-1 -45 -7 50 c-4 28
-11 61 -14 75 -5 21 -4 20 8 -5 9 -16 15 -50 14 -75z m-1509 21 c-6 -18 -9
-51 -6 -74 4 -27 2 -36 -4 -26 -12 19 -11 81 1 115 15 38 23 24 9 -15z m1071
-346 l0 -65 -320 0 -320 0 0 65 0 65 320 0 320 0 0 -65z m141 -67 c13 -18 52
-64 88 -101 65 -67 111 -131 111 -154 0 -17 -44 -38 -105 -52 -302 -66 -406
-99 -493 -157 -29 -19 -57 -32 -62 -29 -5 3 -7 69 -5 153 5 177 -6 163 186
247 74 32 154 73 178 92 55 41 74 41 102 1z m-852 -8 c28 -23 245 -120 268
-120 1 0 3 6 3 13 0 21 33 47 74 58 38 11 79 -3 107 -37 12 -15 9 -21 -31 -55
-25 -22 -49 -39 -55 -39 -6 0 -9 -58 -7 -160 3 -149 -2 -184 -23 -150 -8 13
-100 59 -186 93 -36 15 -119 38 -184 51 -115 25 -226 57 -254 75 -20 13 -3 38
124 172 58 61 105 115 105 120 0 17 21 9 59 -21z m1923 -27 c34 -31 11 -93
-35 -93 -27 0 -57 28 -57 53 0 48 56 73 92 40z m-3038 -35 c21 -30 20 -44 -4
-68 -24 -24 -53 -26 -74 -4 -19 18 -21 65 -4 82 20 20 65 14 82 -10z m2160
-260 c9 -12 16 -27 16 -33 0 -6 -43 -16 -97 -24 -150 -19 -349 -58 -440 -84
-105 -30 -92 -12 26 38 83 35 408 123 458 124 12 1 29 -9 37 -21z m-1109 -38
c83 -20 186 -52 230 -69 128 -52 171 -87 61 -50 -76 25 -322 73 -453 90 -62 7
-103 17 -103 23 0 7 7 22 16 34 19 28 29 27 249 -28z m55 -81 c100 -20 243
-63 180 -54 -122 19 -248 27 -331 22 -73 -5 -101 -3 -115 7 -15 12 -16 16 -5
29 25 31 110 29 271 -4z m995 17 c10 -7 16 -20 12 -28 -4 -13 -40 -16 -204
-21 -109 -4 -214 -9 -233 -13 -65 -12 -24 5 72 31 164 44 317 57 353 31z"/>
<path d="M1375 3159 c-28 -28 -63 -60 -78 -71 -26 -19 -29 -19 -41 -3 -11 16
-16 13 -49 -26 -29 -35 -33 -45 -21 -52 8 -4 14 -20 14 -35 0 -25 2 -24 56 28
48 48 181 210 172 210 -2 0 -26 -23 -53 -51z"/>
<path d="M1416 3066 c-14 -19 -40 -45 -57 -57 -26 -18 -33 -19 -40 -8 -8 11
-16 7 -40 -21 -16 -19 -25 -36 -19 -38 5 -2 10 -12 10 -23 0 -29 11 -23 61 29
67 69 132 152 121 152 -5 0 -21 -15 -36 -34z"/>
<path d="M1425 2960 c-16 -16 -36 -30 -45 -30 -9 0 -24 -8 -33 -17 -12 -15
-13 -20 -2 -30 12 -11 37 10 99 85 27 32 15 27 -19 -8z"/>
<path d="M2450 3121 c0 -6 4 -13 10 -16 6 -3 7 1 4 9 -7 18 -14 21 -14 7z"/>
<path d="M2465 3020 c-3 -5 -1 -10 4 -10 6 0 11 5 11 10 0 6 -2 10 -4 10 -3 0
-8 -4 -11 -10z"/>
<path d="M2481 2966 c-6 -14 -15 -26 -20 -26 -5 0 -11 -7 -14 -14 -4 -9 -1
-13 7 -10 15 6 50 63 42 71 -3 3 -10 -6 -15 -21z"/>
<path d="M2400 2905 c0 -9 6 -12 15 -9 8 4 15 7 15 9 0 2 -7 5 -15 9 -9 3 -15
0 -15 -9z"/>
<path d="M2420 2830 c0 -5 5 -10 11 -10 5 0 7 5 4 10 -3 6 -8 10 -11 10 -2 0
-4 -4 -4 -10z"/>
<path d="M2240 3229 c0 -5 5 -7 10 -4 6 3 10 8 10 11 0 2 -4 4 -10 4 -5 0 -10
-5 -10 -11z"/>
<path d="M2280 3169 c0 -5 5 -7 10 -4 6 3 10 8 10 11 0 2 -4 4 -10 4 -5 0 -10
-5 -10 -11z"/>
<path d="M2360 3078 c-25 -22 -36 -36 -25 -30 19 10 84 72 74 72 -2 -1 -24
-19 -49 -42z"/>
<path d="M2322 3084 c-7 -8 -8 -14 -3 -14 10 0 25 19 20 25 -2 1 -10 -3 -17
-11z"/>
<path d="M2270 3020 c-9 -6 -10 -10 -3 -10 6 0 15 5 18 10 8 12 4 12 -15 0z"/>
<path d="M2165 2990 c3 -5 11 -10 16 -10 6 0 7 5 4 10 -3 6 -11 10 -16 10 -6
0 -7 -4 -4 -10z"/>
<path d="M1390 2710 c6 -11 16 -20 22 -20 6 0 3 9 -7 20 -10 11 -20 20 -22 20
-2 0 1 -9 7 -20z"/>
<path d="M1368 2700 c17 -20 15 -35 -3 -20 -11 9 -19 10 -28 1 -10 -8 -17 -7
-25 1 -7 7 -12 8 -12 2 0 -6 11 -21 25 -34 14 -13 25 -18 25 -12 0 6 -5 14
-10 17 -6 4 -8 11 -4 16 4 6 14 3 25 -7 13 -12 19 -13 19 -4 0 10 3 10 15 0
27 -23 16 6 -12 31 -16 13 -22 17 -15 9z"/>
<path d="M1290 2634 c-13 -14 -11 -19 9 -35 27 -22 37 -24 47 -8 3 6 -5 22
-18 36 -23 22 -26 23 -38 7z m30 -14 c0 -5 -7 -10 -15 -10 -8 0 -15 5 -15 10
0 6 7 10 15 10 8 0 15 -4 15 -10z m20 -20 c0 -5 -5 -10 -11 -10 -5 0 -7 5 -4
10 3 6 8 10 11 10 2 0 4 -4 4 -10z"/>
<path d="M1247 2586 c-3 -8 3 -22 14 -32 11 -10 19 -12 19 -6 0 7 -4 12 -10
12 -5 0 -10 7 -10 15 0 18 11 19 30 3 12 -11 12 -10 1 5 -16 21 -37 22 -44 3z"/>
<path d="M1230 2545 c8 -9 8 -15 2 -15 -6 0 -18 -3 -28 -7 -14 -5 -16 -3 -11
11 5 12 3 16 -5 14 -25 -9 -14 -33 15 -33 23 1 26 -2 21 -20 -6 -17 -5 -18 9
-7 9 8 13 20 10 28 -3 8 0 14 7 14 10 0 10 3 0 15 -7 8 -17 15 -22 15 -6 0 -5
-7 2 -15z"/>
<path d="M1145 2467 c13 -10 15 -16 6 -21 -9 -6 -9 -11 0 -22 9 -11 8 -14 -5
-14 -22 0 -33 -30 -15 -41 8 -5 19 -9 24 -9 6 1 2 5 -7 11 -25 14 -23 32 3 24
13 -5 19 -3 15 3 -3 5 3 12 14 15 29 7 25 30 -9 50 -35 20 -53 23 -26 4z m36
-30 c-1 -12 -15 -9 -19 4 -3 6 1 10 8 8 6 -3 11 -8 11 -12z"/>
<path d="M1115 2350 c3 -5 11 -10 16 -10 6 0 7 5 4 10 -3 6 -11 10 -16 10 -6
0 -7 -4 -4 -10z"/>
<path d="M1090 2325 c-6 -7 -18 -11 -26 -8 -29 11 -13 -8 19 -21 46 -19 81 11
38 33 -14 8 -22 7 -31 -4z m30 -15 c0 -5 -4 -10 -9 -10 -6 0 -13 5 -16 10 -3
6 1 10 9 10 9 0 16 -4 16 -10z"/>
<path d="M1064 2265 c-4 -10 -1 -21 7 -26 20 -12 34 -5 34 17 0 24 -33 31 -41
9z m34 -6 c-2 -6 -8 -10 -13 -10 -5 0 -11 4 -13 10 -2 6 4 11 13 11 9 0 15 -5
13 -11z"/>
<path d="M1017 2223 c-15 -15 -5 -44 18 -55 21 -10 29 -9 43 5 12 13 14 22 7
33 -12 18 -28 20 -33 5 -2 -6 3 -8 12 -5 20 8 21 -10 1 -26 -20 -17 -48 5 -40
31 7 20 3 24 -8 12z"/>
<path d="M1035 2108 c19 -12 19 -13 -10 -19 l-30 -7 33 -1 c27 -1 33 3 30 16
-2 10 -12 19 -23 21 -20 3 -20 3 0 -10z"/>
<path d="M997 2063 c-8 -12 30 -29 40 -19 4 3 -1 6 -9 6 -9 0 -18 5 -20 12 -3
9 -6 9 -11 1z"/>
<path d="M1003 2023 c25 -6 21 -23 -5 -24 -22 0 -22 -1 -3 -8 27 -11 50 6 34
25 -6 8 -19 13 -28 13 -13 -1 -13 -2 2 -6z"/>
<path d="M987 1973 c-12 -12 -7 -22 8 -17 10 4 15 0 15 -10 0 -9 -7 -19 -15
-22 -21 -8 -47 15 -40 35 5 13 4 14 -7 3 -19 -19 3 -47 38 -47 22 0 30 5 32
21 3 22 -20 49 -31 37z"/>
<path d="M968 1853 c6 -2 18 -2 25 0 6 3 1 5 -13 5 -14 0 -19 -2 -12 -5z"/>
<path d="M950 1829 c0 -5 11 -9 25 -9 14 0 25 2 25 4 0 2 -11 6 -25 8 -14 3
-25 1 -25 -3z"/>
<path d="M940 1784 c0 -8 -4 -12 -10 -9 -5 3 -10 1 -10 -4 0 -6 17 -11 38 -10
35 0 36 1 12 11 l-25 11 30 7 30 8 -32 1 c-24 1 -33 -3 -33 -15z"/>
<path d="M950 1735 c-14 -17 -35 -21 -25 -5 3 6 1 10 -4 10 -17 0 -13 -20 5
-27 8 -3 20 -1 27 6 17 17 27 13 20 -6 -5 -14 -3 -16 7 -6 13 12 7 43 -8 43
-5 0 -15 -7 -22 -15z"/>
<path d="M2565 2690 c-16 -16 -24 -30 -19 -30 6 0 20 14 32 30 13 17 21 30 19
30 -2 0 -16 -13 -32 -30z"/>
<path d="M2575 2658 c-11 -13 -13 -17 -5 -10 8 6 20 12 28 12 12 0 12 -3 2
-15 -7 -9 -11 -18 -8 -20 3 -3 11 2 18 10 11 13 11 19 -2 31 -13 13 -17 12
-33 -8z"/>
<path d="M2623 2621 c-3 -12 -10 -18 -17 -14 -6 3 -6 0 2 -8 9 -10 15 -10 24
-1 7 7 8 12 3 12 -6 0 -4 4 4 9 10 6 10 10 1 16 -7 4 -13 -1 -17 -14z"/>
<path d="M2650 2595 c-13 -14 -18 -25 -12 -25 6 0 14 5 17 10 3 6 11 10 17 10
6 0 3 -9 -7 -20 -10 -11 -13 -20 -7 -20 15 0 27 20 27 48 1 28 -6 28 -35 -3z"/>
<path d="M2690 2555 c-13 -14 -19 -25 -13 -25 12 0 48 38 41 45 -2 3 -15 -6
-28 -20z"/>
<path d="M2700 2525 c-13 -16 -6 -35 14 -35 8 0 20 8 27 18 13 15 12 16 -3 4
-25 -20 -45 -10 -24 11 10 9 13 17 8 17 -5 0 -15 -7 -22 -15z"/>
<path d="M2749 2491 c-31 -25 -21 -35 11 -11 14 10 22 21 19 25 -3 3 -17 -3
-30 -14z"/>
<path d="M2753 2454 c-3 -8 -1 -20 6 -27 14 -14 47 15 37 32 -10 16 -36 13
-43 -5z m29 -1 c-6 -2 -10 -9 -6 -14 3 -5 0 -9 -5 -9 -12 0 -14 13 -4 23 3 4
11 7 17 6 6 0 5 -3 -2 -6z"/>
<path d="M2804 2385 c-4 -9 -2 -21 4 -27 15 -15 44 -1 40 19 -4 23 -36 29 -44
8z m27 -18 c-13 -13 -26 -3 -16 12 3 6 11 8 17 5 6 -4 6 -10 -1 -17z"/>
<path d="M2858 2352 c-16 -9 -28 -20 -28 -24 0 -9 36 10 58 30 19 17 2 14 -30
-6z"/>
<path d="M2888 2301 c-30 -17 -36 -35 -16 -47 8 -5 9 -2 5 11 -6 14 -3 16 14
12 15 -4 19 -2 15 9 -7 17 6 18 22 2 8 -8 12 -8 12 -1 0 23 -25 30 -52 14z"/>
<path d="M2895 2244 c-19 -15 -19 -15 10 -8 l30 7 -20 -23 -20 -23 23 12 c24
13 24 13 16 35 -8 20 -13 20 -39 0z"/>
<path d="M2916 2191 c-4 -5 -3 -17 0 -28 5 -17 4 -16 -10 1 -17 21 -22 11 -7
-12 12 -20 73 12 65 33 -7 16 -39 20 -48 6z m34 -11 c0 -5 -7 -10 -16 -10 -8
0 -12 5 -9 10 3 6 10 10 16 10 5 0 9 -4 9 -10z"/>
<path d="M2932 2132 c-20 -16 -22 -20 -9 -30 20 -17 69 5 65 27 -5 23 -29 24
-56 3z m40 -7 c0 -5 -5 -11 -11 -13 -6 -2 -11 4 -11 13 0 9 5 15 11 13 6 -2
11 -8 11 -13z"/>
<path d="M3015 2043 c-29 -7 -38 -18 -30 -41 4 -13 12 -19 20 -15 8 3 13 9 10
13 -3 4 3 14 12 21 14 12 16 12 9 0 -6 -9 -4 -12 5 -9 16 5 19 30 4 33 -5 2
-19 0 -30 -2z m-5 -23 c0 -5 -4 -10 -10 -10 -5 0 -10 5 -10 10 0 6 5 10 10 10
6 0 10 -4 10 -10z"/>
<path d="M3040 1939 l-35 -17 42 1 c44 2 48 4 35 22 -5 7 -19 5 -42 -6z"/>
<path d="M3027 1904 c-15 -16 -6 -31 18 -31 19 0 25 4 23 16 -3 17 -29 26 -41
15z"/>
<path d="M3043 1853 c-7 -2 -13 -12 -13 -21 1 -15 2 -15 11 1 9 15 13 16 26 5
14 -11 15 -11 12 1 -6 17 -18 22 -36 14z"/>
<path d="M3065 1810 c-24 -6 -26 -8 -7 -9 27 -1 28 -9 5 -27 -16 -12 -16 -12
5 -7 12 3 22 11 22 19 0 7 8 18 18 23 21 12 3 13 -43 1z"/>
<path d="M2150 2351 l0 -41 56 0 55 0 -3 38 -3 37 -52 3 -53 3 0 -40z"/>
<path d="M2289 2388 c0 -2 -1 -20 -2 -41 l-2 -37 53 0 52 0 0 40 0 40 -50 0
c-27 0 -50 -1 -51 -2z"/>
<path d="M2427 2384 c-4 -4 -7 -22 -7 -41 l0 -33 56 0 55 0 -3 38 c-3 36 -4
37 -48 40 -25 2 -49 0 -53 -4z"/>
<path d="M1820 2356 c0 -3 9 -10 20 -16 11 -6 20 -8 20 -6 0 3 -9 10 -20 16
-11 6 -20 8 -20 6z"/>
<path d="M1397 2319 c7 -7 15 -10 18 -7 3 3 -2 9 -12 12 -14 6 -15 5 -6 -5z"/>
<path d="M2077 1656 c-3 -8 -3 -23 0 -35 6 -25 -22 -40 -40 -22 -9 10 -7 16 8
28 l20 15 -20 -4 c-14 -2 -20 -11 -20 -28 0 -21 5 -25 33 -26 31 -1 32 0 32
43 0 44 -4 53 -13 29z"/>
<path d="M2260 1655 c0 -9 -9 -15 -25 -15 -14 0 -28 -7 -31 -15 -9 -22 14 -45
42 -43 21 2 24 7 24 45 0 24 -2 43 -5 43 -3 0 -5 -7 -5 -15z m0 -40 c0 -21
-30 -31 -40 -14 -11 17 -3 29 21 29 10 0 19 -7 19 -15z"/>
<path d="M1732 1623 l1 -38 4 33 4 34 34 -39 34 -38 -1 45 c0 39 -1 41 -7 15
l-7 -30 -18 28 c-27 40 -46 35 -44 -10z"/>
<path d="M1880 1635 c11 -13 9 -15 -13 -15 -14 0 -28 -4 -31 -9 -9 -13 17 -30
42 -28 17 1 22 8 22 28 0 16 -7 29 -16 33 -14 5 -15 4 -4 -9z m5 -35 c-3 -5
-13 -10 -21 -10 -8 0 -14 5 -14 10 0 6 9 10 21 10 11 0 17 -4 14 -10z"/>
<path d="M1948 1643 c-13 -3 -18 -13 -17 -36 2 -28 2 -29 6 -7 8 42 43 50 43
9 0 -10 5 -19 10 -19 6 0 10 9 10 20 0 22 -26 38 -52 33z"/>
<path d="M2114 1625 c-4 -8 -1 -22 6 -30 14 -17 60 -21 60 -5 0 5 -7 7 -15 4
-8 -3 -20 -2 -27 2 -9 6 -4 10 17 14 30 5 38 21 14 29 -7 2 -9 -1 -5 -8 5 -7
-1 -11 -14 -11 -12 0 -18 5 -15 10 3 6 1 10 -5 10 -6 0 -13 -7 -16 -15z"/>
<path d="M2960 3109 c0 -4 9 -28 21 -54 11 -26 19 -56 16 -66 -3 -10 -1 -19 4
-19 17 0 8 55 -16 100 -13 25 -24 42 -25 39z"/>
<path d="M942 3051 c-14 -45 -16 -101 -4 -101 5 0 7 13 4 29 -2 16 1 46 8 66
7 20 10 38 8 41 -3 2 -10 -13 -16 -35z"/>
<path d="M2920 3031 c0 -10 30 -24 37 -17 3 2 -5 9 -16 16 -12 6 -21 7 -21 1z"/>
<path d="M986 3004 c-5 -14 -4 -15 9 -4 17 14 19 20 6 20 -5 0 -12 -7 -15 -16z"/>
<path d="M973 2925 c0 -27 2 -38 4 -22 2 15 2 37 0 50 -2 12 -4 0 -4 -28z"/>
<path d="M3021 2894 c0 -11 3 -14 6 -6 3 7 2 16 -1 19 -3 4 -6 -2 -5 -13z"/>
<path d="M932 2875 c0 -16 2 -22 5 -12 2 9 2 23 0 30 -3 6 -5 -1 -5 -18z"/>
<path d="M1049 2873 c-13 -16 -12 -17 4 -4 9 7 17 15 17 17 0 8 -8 3 -21 -13z"/>
<path d="M971 2854 c0 -11 3 -14 6 -6 3 7 2 16 -1 19 -3 4 -6 -2 -5 -13z"/>
<path d="M2966 2787 c3 -10 9 -15 12 -12 3 3 0 11 -7 18 -10 9 -11 8 -5 -6z"/>
<path d="M995 2760 c3 -5 8 -10 11 -10 2 0 4 5 4 10 0 6 -5 10 -11 10 -5 0 -7
-4 -4 -10z"/>
<path d="M890 2726 c0 -2 8 -10 18 -17 15 -13 16 -12 3 4 -13 16 -21 21 -21
13z"/>
<path d="M976 2689 c-7 -23 -17 -173 -10 -167 6 7 24 171 18 177 -2 2 -6 -2
-8 -10z"/>
<path d="M1031 2674 c0 -11 3 -14 6 -6 3 7 2 16 -1 19 -3 4 -6 -2 -5 -13z"/>
<path d="M2865 2679 c-4 -6 -5 -12 -2 -15 2 -3 7 2 10 11 7 17 1 20 -8 4z"/>
<path d="M3040 2664 c0 -8 5 -12 10 -9 6 3 10 10 10 16 0 5 -4 9 -10 9 -5 0
-10 -7 -10 -16z"/>
<path d="M940 2646 c0 -8 4 -17 9 -20 5 -4 7 3 4 14 -6 23 -13 26 -13 6z"/>
<path d="M3200 2631 c0 -5 7 -12 16 -15 14 -5 15 -4 4 9 -14 17 -20 19 -20 6z"/>
<path d="M785 2570 c-3 -5 -1 -10 4 -10 6 0 11 5 11 10 0 6 -2 10 -4 10 -3 0
-8 -4 -11 -10z"/>
<path d="M3088 2493 c-16 -4 -17 -7 -3 -34 16 -30 17 -30 64 -2 6 4 -31 43
-38 42 -3 -1 -14 -3 -23 -6z"/>
<path d="M969 2473 c-13 -16 -12 -17 4 -4 9 7 17 15 17 17 0 8 -8 3 -21 -13z"/>
<path d="M870 2433 c-37 -41 -38 -53 -5 -53 14 0 27 -1 30 -2 3 -2 17 16 30
38 l25 42 -25 4 c-20 4 -32 -3 -55 -29z"/>
<path d="M3426 2434 c-21 -21 -20 -32 5 -53 l21 -17 -25 -37 c-14 -21 -33 -58
-43 -83 -15 -40 -16 -52 -4 -97 7 -29 17 -58 22 -64 6 -7 8 -18 6 -25 -3 -7 7
-33 22 -58 36 -61 57 -62 139 -7 36 25 78 50 94 56 15 6 27 17 27 24 0 15 -34
48 -93 91 -33 24 -45 27 -80 22 -81 -12 -92 31 -29 116 49 66 51 85 17 122
-27 29 -56 33 -79 10z"/>
<path d="M3156 2415 c-3 -8 -12 -15 -21 -15 -19 0 -18 -7 4 -49 14 -26 19 -30
24 -17 4 9 13 16 22 16 19 0 19 2 1 45 -17 39 -21 42 -30 20z"/>
<path d="M518 2403 c-40 -47 -40 -57 7 -124 25 -35 45 -74 45 -86 0 -30 -31
-45 -77 -37 -34 5 -45 1 -103 -43 -36 -27 -65 -55 -65 -63 0 -8 18 -23 40 -34
22 -10 56 -31 75 -46 52 -40 79 -52 104 -46 25 6 71 80 61 97 -4 5 0 18 8 27
16 18 33 102 28 137 -4 25 -57 132 -71 140 -5 3 -10 13 -10 21 0 8 4 13 9 10
13 -9 41 4 41 19 0 18 -34 45 -57 45 -11 0 -27 -8 -35 -17z"/>
<path d="M806 2305 c-19 -44 -20 -59 -6 -50 6 4 17 2 24 -4 9 -8 18 0 34 34
17 35 19 45 8 45 -8 0 -21 3 -30 6 -10 4 -20 -5 -30 -31z"/>
<path d="M3192 2305 c-14 -6 -20 -15 -16 -25 3 -8 8 -27 11 -43 4 -18 9 -24
17 -18 6 5 18 10 27 12 16 4 16 7 0 44 -14 36 -18 39 -39 30z"/>
<path d="M761 2176 c-5 -22 -9 -41 -8 -42 1 -1 14 -4 28 -7 23 -6 27 -3 37 32
16 53 16 56 -17 57 -26 1 -30 -3 -40 -40z"/>
<path d="M3246 2191 c-4 -6 -15 -11 -25 -11 -15 0 -16 -5 -7 -45 9 -40 26 -62
26 -35 0 6 11 10 25 10 30 0 30 -2 6 50 -10 24 -22 37 -25 31z"/>
<path d="M721 2077 c-6 -16 -11 -43 -11 -62 0 -29 3 -32 21 -28 12 4 25 0 29
-8 11 -17 30 29 30 72 0 24 -4 29 -24 29 -13 0 -26 6 -29 13 -3 6 -10 0 -16
-16z"/>
<path d="M3286 2072 c-5 -8 -19 -12 -32 -9 -14 2 -24 -1 -24 -7 1 -28 28 -101
39 -100 6 1 20 2 32 3 13 1 18 5 12 14 -4 6 -10 35 -13 62 -3 33 -8 46 -14 37z"/>
<path d="M3600 1984 c-29 -20 -68 -42 -86 -50 -20 -8 -34 -21 -34 -32 0 -9 -3
-34 -7 -56 l-6 -38 109 4 c89 3 118 8 157 27 27 13 51 30 54 38 3 7 -7 33 -23
56 -67 101 -84 106 -164 51z"/>
<path d="M308 1978 c-27 -23 -79 -108 -76 -126 2 -9 26 -28 53 -42 41 -20 68
-25 153 -28 l102 -4 0 46 c0 47 -24 86 -53 86 -7 0 -28 13 -47 28 -64 53 -101
64 -132 40z"/>
<path d="M696 1932 c-13 -25 -16 -55 -14 -136 3 -98 4 -105 25 -109 19 -4 22
1 25 49 3 48 1 53 -17 51 -14 -1 -21 5 -23 21 -4 26 21 40 42 23 11 -9 15 -5
20 20 3 17 6 47 6 65 0 26 -3 32 -16 27 -9 -3 -20 0 -24 7 -6 9 -13 4 -24 -18z"/>
<path d="M3318 1919 c-2 -6 -16 -11 -32 -11 -26 0 -28 -3 -21 -32 3 -17 9 -48
12 -69 5 -33 8 -37 27 -31 28 9 26 3 33 76 3 41 2 68 -5 72 -6 3 -12 1 -14 -5z"/>
<path d="M3728 1815 c-20 -7 -83 -18 -139 -24 -73 -7 -110 -15 -128 -29 -32
-23 -39 -57 -14 -67 10 -3 95 -6 188 -6 148 1 172 3 183 18 16 22 15 46 -2 88
-16 39 -30 41 -88 20z"/>
<path d="M202 1775 c-15 -34 -15 -88 0 -103 8 -8 62 -12 178 -12 189 0 212 4
208 33 -6 38 -48 57 -148 68 -52 5 -118 16 -147 24 -69 20 -78 19 -91 -10z"/>
</g>
</svg>
